<svg width="40" height="43" viewBox="0 0 40 43" fill="none" xmlns="http://www.w3.org/2000/svg">
<path d="M19.9997 18.6667C18.2316 18.6667 16.5359 17.9643 15.2856 16.7141C14.0354 15.4638 13.333 13.7682 13.333 12C13.333 10.2319 14.0354 8.53624 15.2856 7.286C16.5359 6.03575 18.2316 5.33337 19.9997 5.33337C21.7678 5.33337 23.4635 6.03575 24.7137 7.286C25.964 8.53624 26.6663 10.2319 26.6663 12C26.6663 13.7682 25.964 15.4638 24.7137 16.7141C23.4635 17.9643 21.7678 18.6667 19.9997 18.6667ZM19.9997 8.00004C17.7863 8.00004 15.9997 9.78671 15.9997 12C15.9997 14.2134 17.7863 16 19.9997 16C22.213 16 23.9997 14.2134 23.9997 12C23.9997 9.78671 22.213 8.00004 19.9997 8.00004Z" fill="#14593F"/>
<path d="M36 29.3334C35.2533 29.3334 34.6667 28.7467 34.6667 28C34.6667 27.2534 35.2533 26.6667 36 26.6667C36.7467 26.6667 37.3333 26.08 37.3333 25.3334C37.3333 23.5653 36.631 21.8696 35.3807 20.6193C34.1305 19.3691 32.4348 18.6667 30.6667 18.6667H28C27.2533 18.6667 26.6667 18.08 26.6667 17.3334C26.6667 16.5867 27.2533 16 28 16C30.2133 16 32 14.2134 32 12C32 9.78671 30.2133 8.00004 28 8.00004C27.2533 8.00004 26.6667 7.41337 26.6667 6.66671C26.6667 5.92004 27.2533 5.33337 28 5.33337C29.7681 5.33337 31.4638 6.03575 32.714 7.286C33.9643 8.53624 34.6667 10.2319 34.6667 12C34.6667 13.6534 34.08 15.1467 33.0667 16.32C37.04 17.3867 40 21.0134 40 25.3334C40 27.5467 38.2133 29.3334 36 29.3334ZM4 29.3334C1.78667 29.3334 0 27.5467 0 25.3334C0 21.0134 2.93333 17.3867 6.93333 16.32C5.94667 15.1467 5.33333 13.6534 5.33333 12C5.33333 10.2319 6.03571 8.53624 7.28595 7.286C8.5362 6.03575 10.2319 5.33337 12 5.33337C12.7467 5.33337 13.3333 5.92004 13.3333 6.66671C13.3333 7.41337 12.7467 8.00004 12 8.00004C9.78667 8.00004 8 9.78671 8 12C8 14.2134 9.78667 16 12 16C12.7467 16 13.3333 16.5867 13.3333 17.3334C13.3333 18.08 12.7467 18.6667 12 18.6667H9.33333C7.56522 18.6667 5.86953 19.3691 4.61929 20.6193C3.36905 21.8696 2.66667 23.5653 2.66667 25.3334C2.66667 26.08 3.25333 26.6667 4 26.6667C4.74667 26.6667 5.33333 27.2534 5.33333 28C5.33333 28.7467 4.74667 29.3334 4 29.3334ZM28 37.3334H12C9.78667 37.3334 8 35.5467 8 33.3334V30.6667C8 25.52 12.1867 21.3334 17.3333 21.3334H22.6667C27.8133 21.3334 32 25.52 32 30.6667V33.3334C32 35.5467 30.2133 37.3334 28 37.3334ZM17.3333 24C15.5652 24 13.8695 24.7024 12.6193 25.9527C11.369 27.2029 10.6667 28.8986 10.6667 30.6667V33.3334C10.6667 34.08 11.2533 34.6667 12 34.6667H28C28.7467 34.6667 29.3333 34.08 29.3333 33.3334V30.6667C29.3333 28.8986 28.631 27.2029 27.3807 25.9527C26.1305 24.7024 24.4348 24 22.6667 24H17.3333Z" fill="#14593F"/>
</svg>
