<svg width="38" height="38" viewBox="0 0 38 38" fill="none" xmlns="http://www.w3.org/2000/svg">
<path d="M16.1978 28.5H20.1978V20.49H23.8018L24.1978 16.51H20.1978V14.5C20.1978 14.2348 20.3031 13.9804 20.4907 13.7929C20.6782 13.6054 20.9325 13.5 21.1978 13.5H24.1978V9.5H21.1978C19.8717 9.5 18.5999 10.0268 17.6622 10.9645C16.7245 11.9021 16.1978 13.1739 16.1978 14.5V16.51H14.1978L13.8018 20.49H16.1978V28.5Z" fill="black"/>
<path d="M38 19C38 29.4934 29.4934 38 19 38C8.50659 38 0 29.4934 0 19C0 8.50659 8.50659 0 19 0C29.4934 0 38 8.50659 38 19ZM2.00592 19C2.00592 28.3856 9.61443 35.9941 19 35.9941C28.3856 35.9941 35.9941 28.3856 35.9941 19C35.9941 9.61443 28.3856 2.00592 19 2.00592C9.61443 2.00592 2.00592 9.61443 2.00592 19Z" fill="#1C1C1C"/>
</svg>
