<svg width="38" height="38" viewBox="0 0 38 38" fill="none" xmlns="http://www.w3.org/2000/svg">
<path d="M27.9471 15.305C27.937 14.5476 27.7952 13.7977 27.5281 13.089C27.2964 12.4911 26.9426 11.9482 26.4892 11.4948C26.0359 11.0414 25.4929 10.6876 24.8951 10.456C24.1954 10.1933 23.4562 10.0513 22.7091 10.036C21.7471 9.99296 21.4421 9.98096 19.0001 9.98096C16.5581 9.98096 16.2451 9.98096 15.2901 10.036C14.5432 10.0514 13.8044 10.1934 13.1051 10.456C12.5071 10.6874 11.9641 11.0412 11.5107 11.4946C11.0573 11.948 10.7036 12.491 10.4721 13.089C10.2089 13.7881 10.0672 14.5271 10.0531 15.274C10.0101 16.237 9.99707 16.542 9.99707 18.984C9.99707 21.426 9.99707 21.738 10.0531 22.694C10.0681 23.442 10.2091 24.18 10.4721 24.881C10.7039 25.4787 11.058 26.0215 11.5115 26.4747C11.965 26.9279 12.5081 27.2815 13.1061 27.513C13.8035 27.7862 14.5424 27.9383 15.2911 27.963C16.2541 28.006 16.5591 28.019 19.0011 28.019C21.4431 28.019 21.7561 28.019 22.7111 27.963C23.4582 27.9482 24.1974 27.8066 24.8971 27.544C25.4948 27.312 26.0376 26.9581 26.4909 26.5048C26.9442 26.0515 27.2982 25.5086 27.5301 24.911C27.7931 24.211 27.9341 23.473 27.9491 22.724C27.9921 21.762 28.0051 21.457 28.0051 19.014C28.0031 16.572 28.0031 16.262 27.9471 15.305ZM18.9941 23.602C16.4401 23.602 14.3711 21.533 14.3711 18.979C14.3711 16.425 16.4401 14.356 18.9941 14.356C20.2202 14.356 21.396 14.843 22.263 15.71C23.13 16.577 23.6171 17.7529 23.6171 18.979C23.6171 20.2051 23.13 21.3809 22.263 22.2479C21.396 23.1149 20.2202 23.602 18.9941 23.602ZM23.8011 15.263C23.6595 15.2631 23.5192 15.2353 23.3884 15.1812C23.2575 15.127 23.1386 15.0476 23.0385 14.9475C22.9384 14.8474 22.859 14.7285 22.8049 14.5976C22.7507 14.4668 22.7229 14.3266 22.7231 14.185C22.7231 14.0435 22.7509 13.9033 22.8051 13.7726C22.8592 13.6419 22.9386 13.5231 23.0387 13.423C23.1387 13.323 23.2575 13.2436 23.3882 13.1895C23.519 13.1353 23.6591 13.1075 23.8006 13.1075C23.9421 13.1075 24.0822 13.1353 24.2129 13.1895C24.3436 13.2436 24.4624 13.323 24.5625 13.423C24.6625 13.5231 24.7419 13.6419 24.7961 13.7726C24.8502 13.9033 24.8781 14.0435 24.8781 14.185C24.8781 14.781 24.3961 15.263 23.8011 15.263Z" fill="black"/>
<path d="M18.9942 21.9821C20.6527 21.9821 21.9972 20.6376 21.9972 18.9791C21.9972 17.3206 20.6527 15.9761 18.9942 15.9761C17.3357 15.9761 15.9912 17.3206 15.9912 18.9791C15.9912 20.6376 17.3357 21.9821 18.9942 21.9821Z" fill="black"/>
<path d="M38 19C38 29.4934 29.4934 38 19 38C8.50659 38 0 29.4934 0 19C0 8.50659 8.50659 0 19 0C29.4934 0 38 8.50659 38 19ZM2.00592 19C2.00592 28.3856 9.61443 35.9941 19 35.9941C28.3856 35.9941 35.9941 28.3856 35.9941 19C35.9941 9.61443 28.3856 2.00592 19 2.00592C9.61443 2.00592 2.00592 9.61443 2.00592 19Z" fill="#1C1C1C"/>
</svg>
